<svg width="24" height="24" viewBox="0 0 24 24" fill="none" xmlns="http://www.w3.org/2000/svg">
<g id="Iconly/Light-outline/Home">
<g id="Home">
<path id="Home_2" fill-rule="evenodd" clip-rule="evenodd" d="M20.3395 7.65948C21.0095 8.17848 21.4205 8.94948 21.4905 9.78848L21.5005 9.98948V18.0985C21.5005 20.1885 19.8495 21.8885 17.7805 21.9985H15.7905C14.8395 21.9795 14.0705 21.2395 14.0005 20.3095L13.9905 20.1685V17.3095C13.9905 16.9985 13.7595 16.7395 13.4505 16.6885L13.3605 16.6785H10.6895C10.3705 16.6885 10.1105 16.9185 10.0705 17.2185L10.0605 17.3095V20.1595C10.0605 20.2185 10.0495 20.2885 10.0405 20.3385L10.0305 20.3595L10.0195 20.4285C9.90049 21.2795 9.20049 21.9285 8.33049 21.9895L8.20049 21.9985H6.41049C4.32049 21.9985 2.61049 20.3595 2.50049 18.2985V9.98948C2.50949 9.13848 2.88049 8.34848 3.50049 7.79848L9.73049 2.78848C11.0005 1.77948 12.7805 1.73948 14.0895 2.66848L14.2505 2.78848L20.3395 7.65948ZM20.0995 18.2585L20.1105 18.0985V9.99848C20.0995 9.56948 19.9205 9.16848 19.6105 8.86948L19.4805 8.75848L13.3805 3.87848C12.6205 3.26848 11.5405 3.23948 10.7405 3.76848L10.5895 3.87848L4.50949 8.77948C4.16049 9.03848 3.95049 9.42848 3.90049 9.83848L3.88949 9.99848V18.0985C3.88949 19.4285 4.92949 20.5185 6.25049 20.5985H8.20049C8.42049 20.5985 8.61049 20.4495 8.63949 20.2395L8.66049 20.0595L8.67049 20.0085V17.3095C8.67049 16.2395 9.49049 15.3695 10.5405 15.2885H13.3605C14.4295 15.2885 15.2995 16.1095 15.3805 17.1595V20.1685C15.3805 20.3785 15.5305 20.5595 15.7305 20.5985H17.5895C18.9295 20.5985 20.0195 19.5695 20.0995 18.2585Z" fill="#BDBDBD"/>
</g>
</g>
</svg>
