<svg width="23" height="23" viewBox="0 0 23 23" fill="none" xmlns="http://www.w3.org/2000/svg">
<path d="M1.25 13H8.75C9.08152 13 9.39946 12.8683 9.63388 12.6339C9.8683 12.3995 10 12.0815 10 11.75V1.75C10 1.41848 9.8683 1.10054 9.63388 0.866116C9.39946 0.631696 9.08152 0.5 8.75 0.5H1.25C0.918479 0.5 0.600537 0.631696 0.366116 0.866116C0.131696 1.10054 0 1.41848 0 1.75V11.75C0 12.0815 0.131696 12.3995 0.366116 12.6339C0.600537 12.8683 0.918479 13 1.25 13ZM0 21.75C0 22.0815 0.131696 22.3995 0.366116 22.6339C0.600537 22.8683 0.918479 23 1.25 23H8.75C9.08152 23 9.39946 22.8683 9.63388 22.6339C9.8683 22.3995 10 22.0815 10 21.75V16.75C10 16.4185 9.8683 16.1005 9.63388 15.8661C9.39946 15.6317 9.08152 15.5 8.75 15.5H1.25C0.918479 15.5 0.600537 15.6317 0.366116 15.8661C0.131696 16.1005 0 16.4185 0 16.75V21.75ZM12.5 21.75C12.5 22.0815 12.6317 22.3995 12.8661 22.6339C13.1005 22.8683 13.4185 23 13.75 23H21.25C21.5815 23 21.8995 22.8683 22.1339 22.6339C22.3683 22.3995 22.5 22.0815 22.5 21.75V13C22.5 12.6685 22.3683 12.3505 22.1339 12.1161C21.8995 11.8817 21.5815 11.75 21.25 11.75H13.75C13.4185 11.75 13.1005 11.8817 12.8661 12.1161C12.6317 12.3505 12.5 12.6685 12.5 13V21.75ZM13.75 9.25H21.25C21.5815 9.25 21.8995 9.1183 22.1339 8.88388C22.3683 8.64946 22.5 8.33152 22.5 8V1.75C22.5 1.41848 22.3683 1.10054 22.1339 0.866116C21.8995 0.631696 21.5815 0.5 21.25 0.5H13.75C13.4185 0.5 13.1005 0.631696 12.8661 0.866116C12.6317 1.10054 12.5 1.41848 12.5 1.75V8C12.5 8.33152 12.6317 8.64946 12.8661 8.88388C13.1005 9.1183 13.4185 9.25 13.75 9.25Z" fill="white"/>
</svg>
