<svg width="34" height="38" viewBox="0 0 34 38" fill="none" xmlns="http://www.w3.org/2000/svg">
<path d="M17 37.0889C17.6999 37.0728 18.3716 36.8096 18.8962 36.346C19.4208 35.8824 19.7646 35.2482 19.8667 34.5555H14.0222C14.1272 35.267 14.487 35.9161 15.0348 36.3821C15.5825 36.8481 16.2809 37.0993 17 37.0889Z" fill="black"/>
<path d="M33.1222 29.9223C32.0508 28.9671 31.1128 27.8721 30.3334 26.6667C29.4825 25.0029 28.9725 23.1859 28.8334 21.3223V15.8334C28.8288 15.1667 28.7694 14.5015 28.6556 13.8445C27.781 13.6697 26.9405 13.3545 26.1667 12.9112C26.4617 13.861 26.6115 14.8499 26.6111 15.8445V21.3334C26.7473 23.6068 27.3727 25.8239 28.4445 27.8334C29.2116 29.049 30.1218 30.1681 31.1556 31.1667H2.70003C3.73381 30.1681 4.64403 29.049 5.41114 27.8334C6.48293 25.8239 7.10828 23.6068 7.24447 21.3334V15.8334C7.23862 14.5475 7.48648 13.2731 7.97385 12.0831C8.46122 10.8931 9.17853 9.81095 10.0847 8.89858C10.9909 7.98621 12.0681 7.26155 13.2548 6.76608C14.4414 6.27062 15.7141 6.01409 17 6.01118C18.882 6.01268 20.7217 6.56924 22.2889 7.61118C22.1161 6.97672 22.0192 6.32402 22 5.66673V4.96673C20.8399 4.39602 19.5935 4.02061 18.3111 3.85562V2.45562C18.3111 2.06222 18.1549 1.68493 17.8767 1.40675C17.5985 1.12857 17.2212 0.97229 16.8278 0.97229C16.4344 0.97229 16.0571 1.12857 15.7789 1.40675C15.5008 1.68493 15.3445 2.06222 15.3445 2.45562V3.91118C12.473 4.31624 9.84511 5.74645 7.94583 7.93777C6.04655 10.1291 5.00417 12.9336 5.01114 15.8334V21.3223C4.87198 23.1859 4.362 25.0029 3.51114 26.6667C2.74545 27.8693 1.82247 28.9642 0.766694 29.9223C0.648173 30.0264 0.553184 30.1546 0.488046 30.2983C0.422909 30.442 0.389116 30.5979 0.388916 30.7556V32.2667C0.388916 32.5614 0.505979 32.844 0.714353 33.0524C0.922727 33.2608 1.20534 33.3778 1.50003 33.3778H32.3889C32.6836 33.3778 32.9662 33.2608 33.1746 33.0524C33.383 32.844 33.5 32.5614 33.5 32.2667V30.7556C33.4998 30.5979 33.466 30.442 33.4009 30.2983C33.3358 30.1546 33.2408 30.0264 33.1222 29.9223Z" fill="black"/>
</svg>
